<svg width="33" height="29" viewBox="0 0 33 29" fill="none" xmlns="http://www.w3.org/2000/svg">
<path d="M0 3.5C0 1.567 1.567 0 3.5 0H29.5C31.433 0 33 1.567 33 3.5C33 5.433 31.433 7 29.5 7H3.5C1.567 7 0 5.433 0 3.5Z" fill="#FF8110"/>
<path d="M0 14.5C0 12.567 1.567 11 3.5 11H29.5C31.433 11 33 12.567 33 14.5C33 16.433 31.433 18 29.5 18H3.5C1.567 18 0 16.433 0 14.5Z" fill="#FF8110"/>
<path d="M0 25.5C0 23.567 1.567 22 3.5 22H29.5C31.433 22 33 23.567 33 25.5C33 27.433 31.433 29 29.5 29H3.5C1.567 29 0 27.433 0 25.5Z" fill="#FF8110"/>
</svg>
