<?xml version="1.0" encoding="UTF-8"?>
<svg id="Capa_1" xmlns="http://www.w3.org/2000/svg" width="163.16" height="28" viewBox="0 0 163.16 28"><defs><style>.cls-1{fill:#2fae7b;}.cls-2{fill:#fff;}</style></defs><rect class="cls-1" x=".31" width="28.42" height="28" rx="2" ry="2"/><path class="cls-2" d="M14.52,18.84s-.03.03-.04.03c-.01,0,0,0-.01,0,0,0-.03.04-.04.04-.02,0-.04.03-.04.03-1.93,1.4-3.86,2.73-5.76,4.17l2.15-6.98-5.81-4.32h7.2l2.39-6.95,2.31,6.95h7.2l-5.6,4.14-.02.02s-.07.06-.08.07c-.03.03,0,0-.04.04,0,0-.02.03-.03.03-.02,0-.03.03-.05.05-1.06.97-2.4,1.68-3.58,2.54-.04.03-.06.04-.07.05-.01.01,0,.02-.02.03,0,0-.02.01-.02.02-.02.02-.03.03-.04.03Z"/><path class="cls-2" d="M18.74,17.73c.55,1.8,1.26,3.56,1.71,5.39l-5.89-4.26s0-.04.15-.15l4.03-.99Z"/><path class="cls-1" d="M18.31,16.15c.2.51.29,1.08.45,1.6l-4.03.99c1.18-.87,2.42-1.72,3.58-2.58Z"/><rect class="cls-1" x="32.88" width="28.42" height="28" rx="2" ry="2"/><path class="cls-2" d="M47.09,18.84s-.03.03-.04.03c-.01,0,0,0-.01,0,0,0-.03.04-.04.04-.02,0-.04.03-.04.03-1.93,1.4-3.86,2.73-5.76,4.17l2.15-6.98-5.81-4.32h7.2l2.39-6.95,2.31,6.95h7.2l-5.6,4.14-.02.02s-.07.06-.08.07c-.03.03,0,0-.04.04,0,0-.02.03-.03.03-.02,0-.03.03-.05.05-1.06.97-2.4,1.68-3.58,2.54-.04.03-.06.04-.07.05-.01.01,0,.02-.02.03,0,0-.02.01-.02.02-.02.02-.03.03-.04.03Z"/><path class="cls-2" d="M51.32,17.73c.55,1.8,1.26,3.56,1.71,5.39l-5.89-4.26s0-.04.15-.15l4.03-.99Z"/><path class="cls-1" d="M50.88,16.15c.2.51.29,1.08.45,1.6l-4.03.99c1.18-.87,2.42-1.72,3.58-2.58Z"/><rect class="cls-1" x="65.46" width="28.42" height="28" rx="2" ry="2"/><path class="cls-2" d="M79.67,18.84s-.03.03-.04.03c-.01,0,0,0-.01,0,0,0-.03.04-.04.04-.02,0-.04.03-.04.03-1.93,1.4-3.86,2.73-5.76,4.17l2.15-6.98-5.81-4.32h7.2l2.39-6.95,2.31,6.95h7.2l-5.6,4.14-.02.02s-.07.06-.08.07c-.03.03,0,0-.04.04,0,0-.02.03-.03.03-.02,0-.03.03-.05.05-1.06.97-2.4,1.68-3.58,2.54-.04.03-.06.04-.07.05-.01.01,0,.02-.02.03,0,0-.02.01-.02.02-.02.02-.03.03-.04.03Z"/><path class="cls-2" d="M83.9,17.73c.55,1.8,1.26,3.56,1.71,5.39l-5.89-4.26s0-.04.15-.15l4.03-.99Z"/><path class="cls-1" d="M83.46,16.15c.2.51.29,1.08.45,1.6l-4.03.99c1.18-.87,2.42-1.72,3.58-2.58Z"/><rect class="cls-1" x="98.04" width="28.42" height="28" rx="2" ry="2"/><path class="cls-2" d="M112.25,18.84s-.03.03-.04.03c-.01,0,0,0-.01,0,0,0-.03.04-.04.04-.02,0-.04.03-.04.03-1.93,1.4-3.86,2.73-5.76,4.17l2.15-6.98-5.81-4.32h7.2l2.39-6.95,2.31,6.95h7.2l-5.6,4.14-.02.02s-.07.06-.08.07c-.03.03,0,0-.04.04,0,0-.02.03-.03.03-.02,0-.03.03-.05.05-1.06.97-2.4,1.68-3.58,2.54-.04.03-.06.04-.07.05-.01.01,0,.02-.02.03,0,0-.02.01-.02.02-.02.02-.03.03-.04.03Z"/><path class="cls-2" d="M116.47,17.73c.55,1.8,1.26,3.56,1.71,5.39l-5.89-4.26s0-.04.15-.15l4.03-.99Z"/><path class="cls-1" d="M116.04,16.15c.2.51.29,1.08.45,1.6l-4.03.99c1.18-.87,2.42-1.72,3.58-2.58Z"/><rect class="cls-1" x="130.61" width="28.42" height="28" rx="2" ry="2"/><path class="cls-2" d="M144.83,18.84s-.03.03-.04.03c-.01,0,0,0-.01,0,0,0-.03.04-.04.04-.02,0-.04.03-.04.03-1.93,1.4-3.86,2.73-5.76,4.17l2.15-6.98-5.81-4.32h7.2l2.39-6.95,2.31,6.95h7.2l-5.6,4.14-.02.02s-.07.06-.08.07c-.03.03,0,0-.04.04,0,0-.02.03-.03.03-.02,0-.03.03-.05.05-1.06.97-2.4,1.68-3.58,2.54-.04.03-.06.04-.07.05-.01.01,0,.02-.02.03,0,0-.02.01-.02.02-.02.02-.03.03-.04.03Z"/><path class="cls-2" d="M149.05,17.73c.55,1.8,1.26,3.56,1.71,5.39l-5.89-4.26s0-.04.15-.15l4.03-.99Z"/><path class="cls-1" d="M148.61,16.15c.2.51.29,1.08.45,1.6l-4.03.99c1.18-.87,2.42-1.72,3.58-2.58Z"/></svg>